# This file uses centimeters as units for non-parametric coordinates.

mtllib BoomerEgg.mtl
g default
v -294.830017 -48.900444 -0.348867
v -292.353607 -48.891445 -3.176001
v -288.487488 -48.715496 -3.629596
v -288.531677 -49.195713 9.356799
v -292.006775 -49.438656 9.354165
v -294.325500 -49.168301 6.663187
v -295.469818 -49.011715 3.236425
v -301.185425 -54.585724 -3.589462
v -296.162781 -56.075520 -11.865373
v -288.328583 -55.880409 -13.801811
v -288.735504 -54.385124 16.781099
v -295.222809 -56.005581 15.104569
v -300.338165 -54.844513 8.250382
v -301.596924 -55.145756 2.298343
v -305.622650 -63.385166 -5.689662
v -298.944733 -64.117622 -16.901905
v -288.194427 -63.910568 -18.160929
v -288.911133 -62.131149 20.639074
v -298.472717 -63.320259 17.134804
v -304.689728 -63.248653 9.786787
v -307.912201 -63.578484 1.566900
v -309.418243 -83.613548 -11.924831
v -300.020721 -82.178368 -19.088491
v -288.385498 -80.646080 -23.182180
v -288.739899 -81.410431 23.342003
v -302.271820 -81.884949 19.487453
v -309.421387 -83.292427 14.019361
v -314.700043 -84.809189 0.874046
v -307.369415 -90.019279 -11.376458
v -298.788147 -88.130630 -18.402140
v -288.590912 -86.267639 -23.506659
v -288.758423 -88.515892 23.004827
v -300.738403 -89.164558 18.805920
v -307.540375 -89.744881 12.989525
v -311.084198 -92.747864 0.830764
v -304.666321 -95.543251 -9.134482
v -297.346802 -92.794746 -16.833864
v -288.569672 -92.404602 -20.421383
v -288.753082 -93.791649 17.069281
v -299.252808 -94.657433 14.489421
v -304.866913 -95.214600 9.872553
v -306.194214 -97.727333 0.595545
v -300.267365 -98.009109 -7.182134
v -294.001862 -97.771591 -12.628049
v -288.137634 -97.979965 -14.160959
v -288.646179 -97.310471 12.567164
v -295.885071 -97.214867 10.667338
v -300.738800 -97.360634 6.123646
v -302.898895 -98.065056 0.313591
v -287.675385 -98.645958 -1.588402
v -308.682129 -74.719131 -9.735241
v -300.360382 -74.704521 -19.630508
v -288.194458 -74.786110 -22.657999
v -288.744904 -73.633347 24.372040
v -301.205383 -73.696709 21.590139
v -308.536224 -74.323013 13.240006
v -314.072052 -74.701973 0.992806
v -282.148895 -48.965832 -0.367905
v -284.620056 -48.915901 -3.180048
v -285.083954 -49.563644 9.265762
v -282.756500 -49.387634 6.502076
v -281.532257 -49.132374 3.178175
v -276.450165 -54.978970 -4.220922
v -280.596405 -56.939831 -11.924625
v -282.682709 -55.112095 14.923256
v -277.588684 -54.918491 7.040883
v -275.595215 -55.284386 1.639615
v -271.258209 -63.509834 -6.257723
v -277.785187 -64.292313 -17.075106
v -279.692444 -64.205139 17.357992
v -272.255920 -63.771217 8.584255
v -269.072845 -64.055954 0.438462
v -266.844086 -83.727409 -11.954383
v -275.807556 -82.199921 -19.477085
v -275.283234 -82.634758 19.302877
v -268.426636 -84.107338 12.322119
v -263.000763 -84.875351 0.842799
v -268.669525 -90.355927 -11.297116
v -276.874969 -88.382790 -18.628410
v -276.718964 -89.207169 18.568014
v -269.617462 -89.918274 11.758886
v -266.841400 -92.351112 0.680760
v -271.296082 -95.989006 -8.699824
v -278.004150 -93.361916 -16.696495
v -277.915283 -94.563873 13.962824
v -271.714111 -95.135742 8.540947
v -270.989716 -97.370087 0.220323
v -275.656433 -98.403732 -6.726206
v -281.384430 -98.384399 -11.949146
v -281.056519 -97.296913 10.463078
v -275.459106 -97.292145 5.324202
v -273.693512 -97.790733 -0.330401
v -267.707214 -74.456566 -9.968527
v -275.952728 -74.112129 -20.000757
v -276.474579 -74.973709 21.132765
v -268.824799 -75.705376 11.761508
v -263.394562 -75.153069 0.655936
v -288.514496 -45.493576 2.367695
vt 0.806262 0.478355
vt 0.840509 0.483277
vt 0.866667 0.601179
vt 0.794158 0.553685
vt 0.867204 0.467336
vt 0.930233 0.593640
vt 0.727882 0.381629
vt 0.725469 0.410064
vt 0.648250 0.430377
vt 0.617784 0.372095
vt 0.747368 0.438695
vt 0.709726 0.487705
vt 0.774610 0.462361
vt 0.751177 0.524432
vt 0.854740 0.691536
vt 0.768485 0.631413
vt 0.938202 0.702171
vt 0.594252 0.490032
vt 0.552527 0.426987
vt 0.661701 0.551677
vt 0.714770 0.600004
vt 0.811976 0.782997
vt 0.735743 0.728642
vt 0.900998 0.836114
vt 0.510625 0.570136
vt 0.448728 0.514184
vt 0.584316 0.619896
vt 0.660940 0.680315
vt 0.765693 0.840956
vt 0.695505 0.792238
vt 0.856305 0.899074
vt 0.471292 0.628507
vt 0.387328 0.565715
vt 0.536288 0.672725
vt 0.618173 0.737447
vt 0.724239 0.883002
vt 0.659206 0.831445
vt 0.806384 0.947757
vt 0.428557 0.674707
vt 0.334278 0.610204
vt 0.500666 0.712872
vt 0.578248 0.783704
vt 0.679925 0.908835
vt 0.613976 0.856867
vt 0.730213 0.985106
vt 0.420191 0.733539
vt 0.327023 0.706198
vt 0.486959 0.759745
vt 0.546860 0.818693
vt 0.610598 0.935544
vt 0.579526 0.879089
vt 0.619672 1.000000
vt 0.408341 0.778527
vt 0.342767 0.776806
vt 0.475671 0.800240
vt 0.533662 0.834094
vt 0.444360 0.932326
vt 0.812612 0.409715
vt 0.546633 0.134217
vt 0.545591 0.168641
vt 0.471246 0.163457
vt 0.435548 0.088297
vt 0.454049 0.026923
vt 0.566994 0.110684
vt 0.598864 0.259599
vt 0.627285 0.261989
vt 0.565608 0.332047
vt 0.574493 0.233150
vt 0.521218 0.259654
vt 0.555878 0.202385
vt 0.491147 0.214299
vt 0.389205 0.179075
vt 0.344723 0.083983
vt 0.348871 0.000000
vt 0.497699 0.374983
vt 0.448572 0.298087
vt 0.410071 0.237836
vt 0.287483 0.194458
vt 0.247262 0.109973
vt 0.210635 0.013013
vt 0.404310 0.443584
vt 0.368032 0.362511
vt 0.321851 0.276611
vt 0.217811 0.222978
vt 0.182116 0.145358
vt 0.140843 0.045924
vt 0.339976 0.472211
vt 0.307681 0.400577
vt 0.258200 0.308701
vt 0.172860 0.251852
vt 0.133477 0.178785
vt 0.084171 0.086504
vt 0.287040 0.506247
vt 0.261955 0.428642
vt 0.205712 0.339909
vt 0.139925 0.291924
vt 0.100293 0.217875
vt 0.034043 0.154931
vt 0.238358 0.600699
vt 0.227612 0.504237
vt 0.213408 0.433949
vt 0.165791 0.364682
vt 0.112026 0.321940
vt 0.061871 0.281437
vt 0.000000 0.261165
vt 0.171500 0.572896
vt 0.181225 0.508049
vt 0.171559 0.437983
vt 0.148326 0.374976
vt 0.035989 0.445679
vt 0.614614 0.173834
vn -0.575409 0.788065 -0.218766
vn -0.435100 0.778639 -0.452117
vn -0.594611 0.555721 -0.581044
vn -0.826128 0.469537 -0.311524
vn -0.435100 0.778639 -0.452117
vn 0.000000 0.787952 -0.615737
vn 0.000000 0.598895 -0.800828
vn -0.594611 0.555721 -0.581044
vn 0.000000 0.505930 0.862575
vn -0.529449 0.628757 0.569517
vn -0.619407 0.418666 0.664119
vn 0.000000 0.416140 0.909301
vn -0.529449 0.628757 0.569517
vn -0.634905 0.730757 0.250778
vn -0.827786 0.440295 0.347723
vn -0.619407 0.418666 0.664119
vn -0.634905 0.730757 0.250778
vn -0.617126 0.786815 0.008748
vn -0.876992 0.480505 0.000315
vn -0.827786 0.440295 0.347723
vn -0.617126 0.786815 0.008748
vn -0.575409 0.788065 -0.218766
vn -0.826128 0.469537 -0.311524
vn -0.876992 0.480505 0.000315
vn -0.826128 0.469537 -0.311524
vn -0.594611 0.555721 -0.581044
vn -0.634305 0.413364 -0.653290
vn -0.844159 0.407732 -0.348065
vn -0.594611 0.555721 -0.581044
vn 0.000000 0.598895 -0.800828
vn 0.000000 0.400118 -0.916464
vn -0.634305 0.413364 -0.653290
vn 0.000000 0.416140 0.909301
vn -0.619407 0.418666 0.664119
vn -0.618304 0.356990 0.700184
vn 0.000000 0.312165 0.950028
vn -0.619407 0.418666 0.664119
vn -0.827786 0.440295 0.347723
vn -0.824033 0.403018 0.398179
vn -0.618304 0.356990 0.700184
vn -0.827786 0.440295 0.347723
vn -0.876992 0.480505 0.000315
vn -0.900038 0.435811 0.000000
vn -0.824033 0.403018 0.398179
vn -0.876992 0.480505 0.000315
vn -0.826128 0.469537 -0.311524
vn -0.844159 0.407732 -0.348065
vn -0.900038 0.435811 0.000000
vn -0.844159 0.407732 -0.348065
vn -0.634305 0.413364 -0.653290
vn -0.627500 -0.077821 -0.774718
vn -0.891232 0.142709 -0.430510
vn -0.634305 0.413364 -0.653290
vn 0.000000 0.400118 -0.916464
vn 0.000000 -0.230747 -0.973014
vn -0.627500 -0.077821 -0.774718
vn 0.000000 0.312165 0.950028
vn -0.618304 0.356990 0.700184
vn -0.604711 0.036556 0.795606
vn 0.000000 -0.012812 0.999918
vn -0.618304 0.356990 0.700184
vn -0.824033 0.403018 0.398179
vn -0.856861 0.147647 0.493953
vn -0.604711 0.036556 0.795606
vn -0.824033 0.403018 0.398179
vn -0.900038 0.435811 0.000000
vn -0.974913 0.222548 0.004153
vn -0.856861 0.147647 0.493953
vn -0.900038 0.435811 0.000000
vn -0.844159 0.407732 -0.348065
vn -0.891232 0.142709 -0.430510
vn -0.974913 0.222548 0.004153
vn -0.891232 0.142709 -0.430510
vn -0.627500 -0.077821 -0.774718
vn -0.620742 -0.175846 -0.764041
vn -0.865463 -0.220136 -0.450016
vn -0.627500 -0.077821 -0.774718
vn 0.000000 -0.230747 -0.973014
vn 0.000000 -0.268690 -0.963227
vn -0.620742 -0.175846 -0.764041
vn 0.000000 -0.012812 0.999918
vn -0.604711 0.036556 0.795606
vn -0.526943 -0.171469 0.832424
vn 0.000000 -0.238832 0.971061
vn -0.604711 0.036556 0.795606
vn -0.856861 0.147647 0.493953
vn -0.851138 -0.197937 0.486194
vn -0.526943 -0.171469 0.832424
vn -0.856861 0.147647 0.493953
vn -0.974913 0.222548 0.004153
vn -0.966465 -0.256797 0.000087
vn -0.851138 -0.197937 0.486194
vn -0.974913 0.222548 0.004153
vn -0.891232 0.142709 -0.430510
vn -0.865463 -0.220136 -0.450016
vn -0.966465 -0.256797 0.000087
vn -0.865463 -0.220136 -0.450016
vn -0.620742 -0.175846 -0.764041
vn -0.498484 -0.285188 -0.818646
vn -0.807744 -0.389828 -0.442249
vn -0.620742 -0.175846 -0.764041
vn 0.000000 -0.268690 -0.963227
vn 0.000000 -0.238348 -0.971180
vn -0.498484 -0.285188 -0.818646
vn 0.000000 -0.238832 0.971061
vn -0.526943 -0.171469 0.832424
vn -0.418990 -0.433487 0.797832
vn 0.000000 -0.433668 0.901073
vn -0.526943 -0.171469 0.832424
vn -0.851138 -0.197937 0.486194
vn -0.778881 -0.424019 0.462118
vn -0.418990 -0.433487 0.797832
vn -0.851138 -0.197937 0.486194
vn -0.966465 -0.256797 0.000087
vn -0.899380 -0.437168 0.000000
vn -0.778881 -0.424019 0.462118
vn -0.966465 -0.256797 0.000087
vn -0.865463 -0.220136 -0.450016
vn -0.807744 -0.389828 -0.442249
vn -0.899380 -0.437168 0.000000
vn -0.807744 -0.389828 -0.442249
vn -0.498484 -0.285188 -0.818646
vn -0.437722 -0.556527 -0.706171
vn -0.714078 -0.595007 -0.368862
vn -0.498484 -0.285188 -0.818646
vn 0.000000 -0.238348 -0.971180
vn 0.000000 -0.539907 -0.841725
vn -0.437722 -0.556527 -0.706171
vn 0.000000 -0.433668 0.901073
vn -0.418990 -0.433487 0.797832
vn -0.295271 -0.741719 0.602219
vn 0.000000 -0.775474 0.631380
vn -0.418990 -0.433487 0.797832
vn -0.778881 -0.424019 0.462118
vn -0.683669 -0.628707 0.370573
vn -0.295271 -0.741719 0.602219
vn -0.778881 -0.424019 0.462118
vn -0.899380 -0.437168 0.000000
vn -0.791852 -0.610713 0.000000
vn -0.683669 -0.628707 0.370573
vn -0.899380 -0.437168 0.000000
vn -0.807744 -0.389828 -0.442249
vn -0.714078 -0.595007 -0.368862
vn -0.791852 -0.610713 0.000000
vn 0.013614 -0.943910 -0.329922
vn -0.150471 -0.968668 -0.197585
vn -0.714078 -0.595007 -0.368862
vn -0.437722 -0.556527 -0.706171
vn 0.000000 -0.918739 -0.394866
vn 0.013614 -0.943910 -0.329922
vn -0.437722 -0.556527 -0.706171
vn 0.000000 -0.539907 -0.841725
vn -0.033326 -0.959771 0.278801
vn 0.000000 -0.947713 0.319124
vn 0.000000 -0.775474 0.631380
vn -0.295271 -0.741719 0.602219
vn -0.149733 -0.975404 0.161760
vn -0.033326 -0.959771 0.278801
vn -0.295271 -0.741719 0.602219
vn -0.683669 -0.628707 0.370573
vn -0.192164 -0.981363 0.000000
vn -0.149733 -0.975404 0.161760
vn -0.683669 -0.628707 0.370573
vn -0.791852 -0.610713 0.000000
vn -0.150471 -0.968668 -0.197585
vn -0.192164 -0.981363 0.000000
vn -0.791852 -0.610713 0.000000
vn -0.714078 -0.595007 -0.368862
vn -0.150471 -0.968668 -0.197585
vn 0.013614 -0.943910 -0.329922
vn 0.000000 -0.999858 -0.016866
vn 0.013614 -0.943910 -0.329922
vn 0.000000 -0.918739 -0.394866
vn 0.000000 -0.999858 -0.016866
vn 0.000000 -0.947713 0.319124
vn -0.033326 -0.959771 0.278801
vn 0.000000 -0.999858 -0.016866
vn -0.033326 -0.959771 0.278801
vn -0.149733 -0.975404 0.161760
vn 0.000000 -0.999858 -0.016866
vn -0.149733 -0.975404 0.161760
vn -0.192164 -0.981363 0.000000
vn 0.000000 -0.999858 -0.016866
vn -0.192164 -0.981363 0.000000
vn -0.150471 -0.968668 -0.197585
vn 0.000000 -0.999858 -0.016866
vn -0.435100 0.778639 -0.452117
vn -0.575409 0.788065 -0.218766
vn -0.000532 0.999799 -0.020037
vn 0.000000 0.787952 -0.615737
vn -0.435100 0.778639 -0.452117
vn -0.000532 0.999799 -0.020037
vn -0.529449 0.628757 0.569517
vn 0.000000 0.505930 0.862575
vn -0.000532 0.999799 -0.020037
vn -0.634905 0.730757 0.250778
vn -0.529449 0.628757 0.569517
vn -0.000532 0.999799 -0.020037
vn -0.617126 0.786815 0.008748
vn -0.634905 0.730757 0.250778
vn -0.000532 0.999799 -0.020037
vn -0.575409 0.788065 -0.218766
vn -0.617126 0.786815 0.008748
vn -0.000532 0.999799 -0.020037
vn 0.435100 0.778639 -0.452117
vn 0.575409 0.788065 -0.218766
vn 0.826128 0.469537 -0.311524
vn 0.594611 0.555721 -0.581044
vn 0.000000 0.598895 -0.800828
vn 0.000000 0.787952 -0.615737
vn 0.435100 0.778639 -0.452117
vn 0.594611 0.555721 -0.581044
vn 0.529449 0.628757 0.569517
vn 0.000000 0.505930 0.862575
vn 0.000000 0.416140 0.909301
vn 0.619407 0.418666 0.664119
vn 0.634905 0.730757 0.250778
vn 0.529449 0.628757 0.569517
vn 0.619407 0.418666 0.664119
vn 0.827786 0.440295 0.347723
vn 0.617126 0.786815 0.008748
vn 0.634905 0.730757 0.250778
vn 0.827786 0.440295 0.347723
vn 0.876992 0.480505 0.000315
vn 0.575409 0.788065 -0.218766
vn 0.617126 0.786815 0.008748
vn 0.876992 0.480505 0.000315
vn 0.826128 0.469537 -0.311524
vn 0.826128 0.469537 -0.311524
vn 0.844159 0.407732 -0.348065
vn 0.634305 0.413364 -0.653290
vn 0.594611 0.555721 -0.581044
vn 0.594611 0.555721 -0.581044
vn 0.634305 0.413364 -0.653290
vn 0.000000 0.400118 -0.916464
vn 0.000000 0.598895 -0.800828
vn 0.000000 0.416140 0.909301
vn 0.000000 0.312165 0.950028
vn 0.618304 0.356990 0.700184
vn 0.619407 0.418666 0.664119
vn 0.619407 0.418666 0.664119
vn 0.618304 0.356990 0.700184
vn 0.824033 0.403017 0.398179
vn 0.827786 0.440295 0.347723
vn 0.827786 0.440295 0.347723
vn 0.824033 0.403017 0.398179
vn 0.900038 0.435811 0.000000
vn 0.876992 0.480505 0.000315
vn 0.876992 0.480505 0.000315
vn 0.900038 0.435811 0.000000
vn 0.844159 0.407732 -0.348065
vn 0.826128 0.469537 -0.311524
vn 0.634305 0.413364 -0.653290
vn 0.844159 0.407732 -0.348065
vn 0.891232 0.142709 -0.430510
vn 0.627500 -0.077821 -0.774718
vn 0.000000 -0.230747 -0.973014
vn 0.000000 0.400118 -0.916464
vn 0.634305 0.413364 -0.653290
vn 0.627500 -0.077821 -0.774718
vn 0.618304 0.356990 0.700184
vn 0.000000 0.312165 0.950028
vn 0.000000 -0.012812 0.999918
vn 0.604711 0.036556 0.795606
vn 0.824033 0.403017 0.398179
vn 0.618304 0.356990 0.700184
vn 0.604711 0.036556 0.795606
vn 0.856861 0.147647 0.493953
vn 0.900038 0.435811 0.000000
vn 0.824033 0.403017 0.398179
vn 0.856861 0.147647 0.493953
vn 0.974913 0.222548 0.004153
vn 0.844159 0.407732 -0.348065
vn 0.900038 0.435811 0.000000
vn 0.974913 0.222548 0.004153
vn 0.891232 0.142709 -0.430510
vn 0.627500 -0.077821 -0.774718
vn 0.891232 0.142709 -0.430510
vn 0.865463 -0.220136 -0.450016
vn 0.620742 -0.175846 -0.764041
vn 0.000000 -0.268690 -0.963227
vn 0.000000 -0.230747 -0.973014
vn 0.627500 -0.077821 -0.774718
vn 0.620742 -0.175846 -0.764041
vn 0.604711 0.036556 0.795606
vn 0.000000 -0.012812 0.999918
vn 0.000000 -0.238832 0.971061
vn 0.526943 -0.171469 0.832424
vn 0.856861 0.147647 0.493953
vn 0.604711 0.036556 0.795606
vn 0.526943 -0.171469 0.832424
vn 0.851138 -0.197937 0.486194
vn 0.974913 0.222548 0.004153
vn 0.856861 0.147647 0.493953
vn 0.851138 -0.197937 0.486194
vn 0.966465 -0.256797 0.000087
vn 0.891232 0.142709 -0.430510
vn 0.974913 0.222548 0.004153
vn 0.966465 -0.256797 0.000087
vn 0.865463 -0.220136 -0.450016
vn 0.865463 -0.220136 -0.450016
vn 0.807744 -0.389827 -0.442249
vn 0.498483 -0.285187 -0.818647
vn 0.620742 -0.175846 -0.764041
vn 0.620742 -0.175846 -0.764041
vn 0.498483 -0.285187 -0.818647
vn 0.000000 -0.238348 -0.971180
vn 0.000000 -0.268690 -0.963227
vn 0.000000 -0.238832 0.971061
vn 0.000000 -0.433668 0.901073
vn 0.418990 -0.433487 0.797832
vn 0.526943 -0.171469 0.832424
vn 0.526943 -0.171469 0.832424
vn 0.418990 -0.433487 0.797832
vn 0.778881 -0.424019 0.462118
vn 0.851138 -0.197937 0.486194
vn 0.851138 -0.197937 0.486194
vn 0.778881 -0.424019 0.462118
vn 0.899380 -0.437168 0.000000
vn 0.966465 -0.256797 0.000087
vn 0.966465 -0.256797 0.000087
vn 0.899380 -0.437168 0.000000
vn 0.807744 -0.389827 -0.442249
vn 0.865463 -0.220136 -0.450016
vn 0.807744 -0.389827 -0.442249
vn 0.714078 -0.595007 -0.368862
vn 0.437722 -0.556527 -0.706171
vn 0.498483 -0.285187 -0.818647
vn 0.498483 -0.285187 -0.818647
vn 0.437722 -0.556527 -0.706171
vn 0.000000 -0.539907 -0.841725
vn 0.000000 -0.238348 -0.971180
vn 0.000000 -0.433668 0.901073
vn 0.000000 -0.775474 0.631380
vn 0.295271 -0.741719 0.602219
vn 0.418990 -0.433487 0.797832
vn 0.418990 -0.433487 0.797832
vn 0.295271 -0.741719 0.602219
vn 0.683669 -0.628707 0.370573
vn 0.778881 -0.424019 0.462118
vn 0.778881 -0.424019 0.462118
vn 0.683669 -0.628707 0.370573
vn 0.791852 -0.610713 0.000000
vn 0.899380 -0.437168 0.000000
vn 0.899380 -0.437168 0.000000
vn 0.791852 -0.610713 0.000000
vn 0.714078 -0.595007 -0.368862
vn 0.807744 -0.389827 -0.442249
vn 0.150471 -0.968669 -0.197584
vn -0.013614 -0.943910 -0.329921
vn 0.437722 -0.556527 -0.706171
vn 0.714078 -0.595007 -0.368862
vn -0.013614 -0.943910 -0.329921
vn 0.000000 -0.918739 -0.394866
vn 0.000000 -0.539907 -0.841725
vn 0.437722 -0.556527 -0.706171
vn 0.000000 -0.775474 0.631380
vn 0.000000 -0.947713 0.319124
vn 0.033326 -0.959771 0.278801
vn 0.295271 -0.741719 0.602219
vn 0.033326 -0.959771 0.278801
vn 0.149733 -0.975405 0.161759
vn 0.683669 -0.628707 0.370573
vn 0.295271 -0.741719 0.602219
vn 0.149733 -0.975405 0.161759
vn 0.192164 -0.981363 0.000000
vn 0.791852 -0.610713 0.000000
vn 0.683669 -0.628707 0.370573
vn 0.192164 -0.981363 0.000000
vn 0.150471 -0.968669 -0.197584
vn 0.714078 -0.595007 -0.368862
vn 0.791852 -0.610713 0.000000
vn 0.150471 -0.968669 -0.197584
vn 0.000000 -0.999858 -0.016866
vn -0.013614 -0.943910 -0.329921
vn -0.013614 -0.943910 -0.329921
vn 0.000000 -0.999858 -0.016866
vn 0.000000 -0.918739 -0.394866
vn 0.000000 -0.947713 0.319124
vn 0.000000 -0.999858 -0.016866
vn 0.033326 -0.959771 0.278801
vn 0.033326 -0.959771 0.278801
vn 0.000000 -0.999858 -0.016866
vn 0.149733 -0.975405 0.161759
vn 0.149733 -0.975405 0.161759
vn 0.000000 -0.999858 -0.016866
vn 0.192164 -0.981363 0.000000
vn 0.192164 -0.981363 0.000000
vn 0.000000 -0.999858 -0.016866
vn 0.150471 -0.968669 -0.197584
vn 0.575409 0.788065 -0.218766
vn 0.435100 0.778639 -0.452117
vn -0.000532 0.999799 -0.020037
vn 0.435100 0.778639 -0.452117
vn 0.000000 0.787952 -0.615737
vn -0.000532 0.999799 -0.020037
vn 0.000000 0.505930 0.862575
vn 0.529449 0.628757 0.569517
vn -0.000532 0.999799 -0.020037
vn 0.529449 0.628757 0.569517
vn 0.634905 0.730757 0.250778
vn -0.000532 0.999799 -0.020037
vn 0.634905 0.730757 0.250778
vn 0.617126 0.786815 0.008748
vn -0.000532 0.999799 -0.020037
vn 0.617126 0.786815 0.008748
vn 0.575409 0.788065 -0.218766
vn -0.000532 0.999799 -0.020037
s off
g BoomerEgg
usemtl BoomerEgg_low:BoomerSG
f 1/1/1 2/2/2 9/3/3 8/4/4
f 2/2/5 3/5/6 10/6/7 9/3/8
f 4/7/9 5/8/10 12/9/11 11/10/12
f 5/8/13 6/11/14 13/12/15 12/9/16
f 6/11/17 7/13/18 14/14/19 13/12/20
f 7/13/21 1/1/22 8/4/23 14/14/24
f 8/4/25 9/3/26 16/15/27 15/16/28
f 9/3/29 10/6/30 17/17/31 16/15/32
f 11/10/33 12/9/34 19/18/35 18/19/36
f 12/9/37 13/12/38 20/20/39 19/18/40
f 13/12/41 14/14/42 21/21/43 20/20/44
f 14/14/45 8/4/46 15/16/47 21/21/48
f 15/16/49 16/15/50 52/22/51 51/23/52
f 16/15/53 17/17/54 53/24/55 52/22/56
f 18/19/57 19/18/58 55/25/59 54/26/60
f 19/18/61 20/20/62 56/27/63 55/25/64
f 20/20/65 21/21/66 57/28/67 56/27/68
f 21/21/69 15/16/70 51/23/71 57/28/72
f 51/23/73 52/22/74 23/29/75 22/30/76
f 52/22/77 53/24/78 24/31/79 23/29/80
f 54/26/81 55/25/82 26/32/83 25/33/84
f 55/25/85 56/27/86 27/34/87 26/32/88
f 56/27/89 57/28/90 28/35/91 27/34/92
f 57/28/93 51/23/94 22/30/95 28/35/96
f 22/30/97 23/29/98 30/36/99 29/37/100
f 23/29/101 24/31/102 31/38/103 30/36/104
f 25/33/105 26/32/106 33/39/107 32/40/108
f 26/32/109 27/34/110 34/41/111 33/39/112
f 27/34/113 28/35/114 35/42/115 34/41/116
f 28/35/117 22/30/118 29/37/119 35/42/120
f 29/37/121 30/36/122 37/43/123 36/44/124
f 30/36/125 31/38/126 38/45/127 37/43/128
f 32/40/129 33/39/130 40/46/131 39/47/132
f 33/39/133 34/41/134 41/48/135 40/46/136
f 34/41/137 35/42/138 42/49/139 41/48/140
f 35/42/141 29/37/142 36/44/143 42/49/144
f 44/50/145 43/51/146 36/44/147 37/43/148
f 45/52/149 44/50/150 37/43/151 38/45/152
f 47/53/153 46/54/154 39/47/155 40/46/156
f 48/55/157 47/53/158 40/46/159 41/48/160
f 49/56/161 48/55/162 41/48/163 42/49/164
f 43/51/165 49/56/166 42/49/167 36/44/168
f 43/51/169 44/50/170 50/57/171
f 44/50/172 45/52/173 50/57/174
f 46/54/175 47/53/176 50/57/177
f 47/53/178 48/55/179 50/57/180
f 48/55/181 49/56/182 50/57/183
f 49/56/184 43/51/185 50/57/186
f 2/2/187 1/1/188 98/58/189
f 3/5/190 2/2/191 98/58/192
f 5/8/193 4/7/194 98/58/195
f 6/11/196 5/8/197 98/58/198
f 7/13/199 6/11/200 98/58/201
f 1/1/202 7/13/203 98/58/204
f 59/59/205 58/60/206 63/61/207 64/62/208
f 10/63/209 3/64/210 59/59/211 64/62/212
f 60/65/213 4/66/214 11/10/215 65/67/216
f 61/68/217 60/65/218 65/67/219 66/69/220
f 62/70/221 61/68/222 66/69/223 67/71/224
f 58/60/225 62/70/226 67/71/227 63/61/228
f 63/61/229 68/72/230 69/73/231 64/62/232
f 64/62/233 69/73/234 17/74/235 10/63/236
f 11/10/237 18/19/238 70/75/239 65/67/240
f 65/67/241 70/75/242 71/76/243 66/69/244
f 66/69/245 71/76/246 72/77/247 67/71/248
f 67/71/249 72/77/250 68/72/251 63/61/252
f 69/73/253 68/72/254 93/78/255 94/79/256
f 53/80/257 17/74/258 69/73/259 94/79/260
f 70/75/261 18/19/262 54/26/263 95/81/264
f 71/76/265 70/75/266 95/81/267 96/82/268
f 72/77/269 71/76/270 96/82/271 97/83/272
f 68/72/273 72/77/274 97/83/275 93/78/276
f 94/79/277 93/78/278 73/84/279 74/85/280
f 24/86/281 53/80/282 94/79/283 74/85/284
f 95/81/285 54/26/286 25/33/287 75/87/288
f 96/82/289 95/81/290 75/87/291 76/88/292
f 97/83/293 96/82/294 76/88/295 77/89/296
f 93/78/297 97/83/298 77/89/299 73/84/300
f 73/84/301 78/90/302 79/91/303 74/85/304
f 74/85/305 79/91/306 31/92/307 24/86/308
f 25/33/309 32/40/310 80/93/311 75/87/312
f 75/87/313 80/93/314 81/94/315 76/88/316
f 76/88/317 81/94/318 82/95/319 77/89/320
f 77/89/321 82/95/322 78/90/323 73/84/324
f 78/90/325 83/96/326 84/97/327 79/91/328
f 79/91/329 84/97/330 38/98/331 31/92/332
f 32/40/333 39/99/334 85/100/335 80/93/336
f 80/93/337 85/100/338 86/101/339 81/94/340
f 81/94/341 86/101/342 87/102/343 82/95/344
f 82/95/345 87/102/346 83/96/347 78/90/348
f 88/103/349 89/104/350 84/97/351 83/96/352
f 89/104/353 45/105/354 38/98/355 84/97/356
f 39/99/357 46/106/358 90/107/359 85/100/360
f 90/107/361 91/108/362 86/101/363 85/100/364
f 91/108/365 92/109/366 87/102/367 86/101/368
f 92/109/369 88/103/370 83/96/371 87/102/372
f 88/103/373 50/110/374 89/104/375
f 89/104/376 50/110/377 45/105/378
f 46/106/379 50/110/380 90/107/381
f 90/107/382 50/110/383 91/108/384
f 91/108/385 50/110/386 92/109/387
f 92/109/388 50/110/389 88/103/390
f 58/60/391 59/59/392 98/111/393
f 59/59/394 3/64/395 98/111/396
f 4/66/397 60/65/398 98/111/399
f 60/65/400 61/68/401 98/111/402
f 61/68/403 62/70/404 98/111/405
f 62/70/406 58/60/407 98/111/408
